<svg xmlns="http://www.w3.org/2000/svg" viewBox="0 0 3840 2160"><defs><style>.cls-1{fill:#fff;}</style></defs><title>mask</title><g id="레이어_2" data-name="레이어 2"><g id="레이어_1-2" data-name="레이어 1"><path class="cls-1" d="M0,0V2160H3840V0ZM2154.15,972a5.69,5.69,0,0,1-5.69,5.69H2026a9.38,9.38,0,0,0-9.38,9.38v72.75a9.38,9.38,0,0,0,9.38,9.38h122.48a5.69,5.69,0,0,1,5.69,5.69v68.29a5.69,5.69,0,0,1-5.69,5.69H1988.25a9.07,9.07,0,0,1-6.57-2.82L1937,1099.17v44a5.68,5.68,0,0,1-5.68,5.69H1863a5.68,5.68,0,0,1-5.68-5.69v-155a9.38,9.38,0,0,0-9.38-9.38h-72.76a9.38,9.38,0,0,0-9.38,9.38v155a5.68,5.68,0,0,1-5.68,5.69h-68.3a5.68,5.68,0,0,1-5.68-5.69V951.58a9.1,9.1,0,0,1,2.49-6.25l42.19-44.47a9.12,9.12,0,0,1,6.59-2.83h148.23a9.08,9.08,0,0,1,6.58,2.82l44.72,47,44.72-47a9.11,9.11,0,0,1,6.58-2.82h160.21a5.69,5.69,0,0,1,5.69,5.69Z"/></g></g></svg>