<svg id="레이어_1" data-name="레이어 1" xmlns="http://www.w3.org/2000/svg" viewBox="0 0 3840 2160"><defs><style>.cls-1{fill:#003568;}</style></defs><title>txt_blue</title><path class="cls-1" d="M1650.31,1259.2c-.33,0-.5-.22-.61-.56l-8-28.08h-.11l-8,28.08a.72.72,0,0,1-.67.56h-3.05a.59.59,0,0,1-.6-.56l-9.09-36.55c-.11-.34.06-.56.44-.56h3.66a.58.58,0,0,1,.66.56l6.71,28h.11l7.81-28a.7.7,0,0,1,.66-.56h2.83c.39,0,.55.22.66.56l8,28h.11l6.54-28a.66.66,0,0,1,.71-.56h3.6c.39,0,.5.22.45.56l-9.09,36.55a.65.65,0,0,1-.66.56Z"/><path class="cls-1" d="M1669.09,1222.09a.52.52,0,0,1,.55-.56h3.82a.53.53,0,0,1,.56.56v36.55a.53.53,0,0,1-.56.56h-3.82a.52.52,0,0,1-.55-.56Z"/><path class="cls-1" d="M1683.32,1222.09a.52.52,0,0,1,.55-.56h3.55a.89.89,0,0,1,.94.56l17.06,28.24h.22v-28.24a.52.52,0,0,1,.55-.56h3.49a.52.52,0,0,1,.56.56v36.55a.52.52,0,0,1-.56.56h-3.54a.93.93,0,0,1-.94-.56l-17.12-28.14h-.16v28.14a.53.53,0,0,1-.56.56h-3.49a.52.52,0,0,1-.55-.56Z"/><path class="cls-1" d="M1719.54,1222.09a.52.52,0,0,1,.55-.56h12.69c6.37,0,10.58,2.71,12.29,8,.67,2,1,4.1,1,10.8s-.33,8.75-1,10.8c-1.71,5.32-5.92,8-12.29,8h-12.69a.52.52,0,0,1-.55-.56Zm5.26,32.51h6.92c4.55,0,7.37-1.5,8.59-5.15.5-1.39.78-3.22.78-9.09s-.28-7.7-.78-9.08c-1.22-3.66-4-5.15-8.59-5.15h-6.92a.29.29,0,0,0-.33.33v27.81A.29.29,0,0,0,1724.8,1254.6Z"/><path class="cls-1" d="M1753.71,1251c-.72-2.16-1-4.43-1-10.64s.28-8.47,1-10.63c1.94-5.82,6.48-8.81,12.79-8.81s10.92,3,12.85,8.81c.72,2.16,1,4.43,1,10.63s-.28,8.48-1,10.64c-1.93,5.81-6.48,8.81-12.85,8.81S1755.65,1256.81,1753.71,1251Zm20.83-1.39c.44-1.38.83-3.82.83-9.25s-.39-7.86-.83-9.25c-1.17-3.6-3.83-5.59-8-5.59s-6.81,2-8,5.59c-.45,1.39-.83,3.83-.83,9.25s.38,7.87.83,9.25c1.16,3.6,3.82,5.6,8,5.6S1773.37,1253.21,1774.54,1249.61Z"/><path class="cls-1" d="M1814.74,1259.2c-.33,0-.49-.22-.6-.56l-8-28.08H1806l-8,28.08a.71.71,0,0,1-.67.56h-3a.6.6,0,0,1-.61-.56l-9.09-36.55c-.11-.34.06-.56.45-.56h3.65a.59.59,0,0,1,.67.56l6.7,28h.11l7.81-28a.7.7,0,0,1,.66-.56h2.83c.39,0,.55.22.66.56l8,28h.11l6.54-28a.67.67,0,0,1,.72-.56h3.6c.38,0,.49.22.44.56l-9.08,36.55a.67.67,0,0,1-.67.56Z"/><path class="cls-1" d="M1853.46,1259.2a.52.52,0,0,1-.56-.56v-32.18a.29.29,0,0,0-.33-.33h-10.3a.53.53,0,0,1-.56-.56v-3.48a.53.53,0,0,1,.56-.56h26.2a.52.52,0,0,1,.55.56v3.48a.52.52,0,0,1-.55.56h-10.31a.29.29,0,0,0-.33.33v32.18a.52.52,0,0,1-.55.56Z"/><path class="cls-1" d="M1873.23,1251c-.72-2.16-1-4.43-1-10.64s.28-8.47,1-10.63c1.94-5.82,6.48-8.81,12.79-8.81s10.91,3,12.85,8.81c.72,2.16,1,4.43,1,10.63s-.28,8.48-1,10.64c-1.94,5.81-6.48,8.81-12.85,8.81S1875.17,1256.81,1873.23,1251Zm20.82-1.39c.45-1.38.83-3.82.83-9.25s-.38-7.86-.83-9.25c-1.16-3.6-3.82-5.59-8-5.59s-6.81,2-8,5.59c-.45,1.39-.84,3.83-.84,9.25s.39,7.87.84,9.25c1.16,3.6,3.82,5.6,8,5.6S1892.89,1253.21,1894.05,1249.61Z"/><path class="cls-1" d="M1928.83,1259.2a.52.52,0,0,1-.55-.56v-32.18a.29.29,0,0,0-.33-.33h-10.31a.52.52,0,0,1-.55-.56v-3.48a.52.52,0,0,1,.55-.56h26.2a.52.52,0,0,1,.56.56v3.48a.52.52,0,0,1-.56.56h-10.3a.29.29,0,0,0-.33.33v32.18a.52.52,0,0,1-.56.56Z"/><path class="cls-1" d="M1950.26,1222.09a.53.53,0,0,1,.56-.56h3.82a.52.52,0,0,1,.55.56v15.45c0,.22.11.33.34.33h16.34a.29.29,0,0,0,.33-.33v-15.45a.52.52,0,0,1,.55-.56h3.82a.52.52,0,0,1,.56.56v36.55a.52.52,0,0,1-.56.56h-3.82a.52.52,0,0,1-.55-.56V1242.8a.29.29,0,0,0-.33-.33h-16.34c-.23,0-.34.11-.34.33v15.84a.52.52,0,0,1-.55.56h-3.82a.53.53,0,0,1-.56-.56Z"/><path class="cls-1" d="M1986.43,1222.09a.52.52,0,0,1,.55-.56h22.66a.52.52,0,0,1,.55.56v3.48a.52.52,0,0,1-.55.56h-18a.29.29,0,0,0-.33.33v11.08a.29.29,0,0,0,.33.33h15.23a.52.52,0,0,1,.56.55v3.5a.52.52,0,0,1-.56.55h-15.23a.29.29,0,0,0-.33.33v11.47a.29.29,0,0,0,.33.33h18a.52.52,0,0,1,.55.55v3.49a.52.52,0,0,1-.55.56H1987a.52.52,0,0,1-.55-.56Z"/><path class="cls-1" d="M2030.9,1222.09a.52.52,0,0,1,.56-.56h22.65a.52.52,0,0,1,.55.56v3.48a.52.52,0,0,1-.55.56h-18a.29.29,0,0,0-.33.33v11.47a.29.29,0,0,0,.33.33h15.24a.52.52,0,0,1,.55.55v3.49a.53.53,0,0,1-.55.56h-15.24a.29.29,0,0,0-.33.33v15.45a.52.52,0,0,1-.55.56h-3.82a.52.52,0,0,1-.56-.56Z"/><path class="cls-1" d="M2061.42,1246.07v-24a.52.52,0,0,1,.55-.56h3.82a.52.52,0,0,1,.56.56V1246c0,6.1,3.38,9.2,8.42,9.2s8.36-3.1,8.36-9.2v-23.92a.52.52,0,0,1,.55-.56h3.83a.52.52,0,0,1,.55.56v24c0,8.86-5,13.74-13.29,13.74S2061.42,1254.93,2061.42,1246.07Z"/><path class="cls-1" d="M2105.39,1259.2a.52.52,0,0,1-.55-.56v-32.18a.29.29,0,0,0-.33-.33H2094.2a.52.52,0,0,1-.55-.56v-3.48a.52.52,0,0,1,.55-.56h26.2a.52.52,0,0,1,.56.56v3.48a.52.52,0,0,1-.56.56h-10.3a.29.29,0,0,0-.33.33v32.18a.52.52,0,0,1-.56.56Z"/><path class="cls-1" d="M2126.55,1246.07v-24a.52.52,0,0,1,.55-.56h3.82a.52.52,0,0,1,.56.56V1246c0,6.1,3.38,9.2,8.42,9.2s8.36-3.1,8.36-9.2v-23.92a.52.52,0,0,1,.55-.56h3.83a.52.52,0,0,1,.55.56v24c0,8.86-5,13.74-13.29,13.74S2126.55,1254.93,2126.55,1246.07Z"/><path class="cls-1" d="M2184,1259.2c-.39,0-.56-.17-.72-.56l-7.54-15.4h-8.3a.3.3,0,0,0-.34.34v15.06a.52.52,0,0,1-.55.56h-3.82a.53.53,0,0,1-.56-.56v-36.55a.53.53,0,0,1,.56-.56h13.62c7,0,11.8,4.32,11.8,10.86a10.25,10.25,0,0,1-7.42,10.24l8,15.9c.22.33.06.67-.33.67Zm-.78-26.81c0-3.94-2.6-6.26-7-6.26h-8.8c-.23,0-.34.11-.34.33v11.85a.3.3,0,0,0,.34.34h8.8C2180.66,1238.65,2183.26,1236.32,2183.26,1232.39Z"/><path class="cls-1" d="M2196.39,1222.09a.52.52,0,0,1,.55-.56h22.65a.52.52,0,0,1,.56.56v3.48a.52.52,0,0,1-.56.56h-17.94a.29.29,0,0,0-.33.33v11.08a.29.29,0,0,0,.33.33h15.23a.52.52,0,0,1,.55.55v3.5a.52.52,0,0,1-.55.55h-15.23a.29.29,0,0,0-.33.33v11.47a.29.29,0,0,0,.33.33h17.94a.52.52,0,0,1,.56.55v3.49a.52.52,0,0,1-.56.56h-22.65a.52.52,0,0,1-.55-.56Z"/></svg>