{
    "asset" : {
        "generator" : "Khronos glTF Blender I/O v1.2.75",
        "version" : "2.0"
    },
    "scene" : 0,
    "scenes" : [
        {
            "name" : "Scene",
            "nodes" : [
                0
            ]
        }
    ],
    "nodes" : [
        {
            "mesh" : 0,
            "name" : "lid1",
            "rotation" : [
                0.7071068286895752,
                0,
                0,
                0.7071067094802856
            ]
        }
    ],
    "materials" : [
        {
            "doubleSided" : true,
            "emissiveFactor" : [
                0,
                0,
                0
            ],
            "name" : "wire_166229229",
            "pbrMetallicRoughness" : {
                "baseColorFactor" : [
                    0.6510000228881836,
                    0.8980000019073486,
                    0.8980000019073486,
                    1
                ],
                "metallicFactor" : 0,
                "roughnessFactor" : 0.8114382028579712
            }
        },
        {
            "doubleSided" : true,
            "emissiveFactor" : [
                0,
                0,
                0
            ],
            "name" : "wire_153228214",
            "pbrMetallicRoughness" : {
                "baseColorFactor" : [
                    0.6000000238418579,
                    0.89410001039505,
                    0.8392000198364258,
                    1
                ],
                "metallicFactor" : 0,
                "roughnessFactor" : 0.8114382028579712
            }
        }
    ],
    "meshes" : [
        {
            "name" : "lid1",
            "primitives" : [
                {
                    "attributes" : {
                        "POSITION" : 0,
                        "NORMAL" : 1,
                        "TEXCOORD_0" : 2
                    },
                    "indices" : 3,
                    "material" : 0
                },
                {
                    "attributes" : {
                        "POSITION" : 4,
                        "NORMAL" : 5,
                        "TEXCOORD_0" : 6
                    },
                    "indices" : 7,
                    "material" : 1
                }
            ]
        }
    ],
    "accessors" : [
        {
            "bufferView" : 0,
            "componentType" : 5126,
            "count" : 12824,
            "max" : [
                2.370800018310547,
                4.859899997711182,
                -12.626500129699707
            ],
            "min" : [
                -7.292399883270264,
                -4.841899871826172,
                -15.279999732971191
            ],
            "type" : "VEC3"
        },
        {
            "bufferView" : 1,
            "componentType" : 5126,
            "count" : 12824,
            "type" : "VEC3"
        },
        {
            "bufferView" : 2,
            "componentType" : 5126,
            "count" : 12824,
            "type" : "VEC2"
        },
        {
            "bufferView" : 3,
            "componentType" : 5123,
            "count" : 67182,
            "type" : "SCALAR"
        },
        {
            "bufferView" : 4,
            "componentType" : 5126,
            "count" : 22536,
            "max" : [
                -0.6786999702453613,
                -1.8609000444412231,
                -15.016500473022461
            ],
            "min" : [
                -4.287199974060059,
                -2.92930006980896,
                -15.116499900817871
            ],
            "type" : "VEC3"
        },
        {
            "bufferView" : 5,
            "componentType" : 5126,
            "count" : 22536,
            "type" : "VEC3"
        },
        {
            "bufferView" : 6,
            "componentType" : 5126,
            "count" : 22536,
            "type" : "VEC2"
        },
        {
            "bufferView" : 7,
            "componentType" : 5123,
            "count" : 39042,
            "type" : "SCALAR"
        }
    ],
    "bufferViews" : [
        {
            "buffer" : 0,
            "byteLength" : 153888,
            "byteOffset" : 0
        },
        {
            "buffer" : 0,
            "byteLength" : 153888,
            "byteOffset" : 153888
        },
        {
            "buffer" : 0,
            "byteLength" : 102592,
            "byteOffset" : 307776
        },
        {
            "buffer" : 0,
            "byteLength" : 134364,
            "byteOffset" : 410368
        },
        {
            "buffer" : 0,
            "byteLength" : 270432,
            "byteOffset" : 544732
        },
        {
            "buffer" : 0,
            "byteLength" : 270432,
            "byteOffset" : 815164
        },
        {
            "buffer" : 0,
            "byteLength" : 180288,
            "byteOffset" : 1085596
        },
        {
            "buffer" : 0,
            "byteLength" : 78084,
            "byteOffset" : 1265884
        }
    ],
    "buffers" : [
        {
            "byteLength" : 1343968,
            "uri" : "data:application/octet-stream;base64,"
        }
    ]
}
