{
    "asset" : {
        "generator" : "Khronos glTF Blender I/O v1.2.75",
        "version" : "2.0"
    },
    "scene" : 0,
    "scenes" : [
        {
            "name" : "Scene",
            "nodes" : [
                0
            ]
        }
    ],
    "nodes" : [
        {
            "mesh" : 0,
            "name" : "lid2",
            "rotation" : [
                0.7071068286895752,
                0,
                0,
                0.7071067094802856
            ]
        }
    ],
    "materials" : [
        {
            "doubleSided" : true,
            "emissiveFactor" : [
                0,
                0,
                0
            ],
            "name" : "wire_166229229",
            "pbrMetallicRoughness" : {
                "baseColorFactor" : [
                    0.6510000228881836,
                    0.8980000019073486,
                    0.8980000019073486,
                    1
                ],
                "metallicFactor" : 0,
                "roughnessFactor" : 0.8114382028579712
            }
        }
    ],
    "meshes" : [
        {
            "name" : "Cup 400",
            "primitives" : [
                {
                    "attributes" : {
                        "POSITION" : 0,
                        "NORMAL" : 1,
                        "TEXCOORD_0" : 2
                    },
                    "indices" : 3,
                    "material" : 0
                }
            ]
        }
    ],
    "accessors" : [
        {
            "bufferView" : 0,
            "componentType" : 5126,
            "count" : 12548,
            "max" : [
                13.257200241088867,
                3.095599889755249,
                -0.09290000051259995
            ],
            "min" : [
                4.603499889373779,
                -4.376999855041504,
                -9.621800422668457
            ],
            "type" : "VEC3"
        },
        {
            "bufferView" : 1,
            "componentType" : 5126,
            "count" : 12548,
            "type" : "VEC3"
        },
        {
            "bufferView" : 2,
            "componentType" : 5126,
            "count" : 12548,
            "type" : "VEC2"
        },
        {
            "bufferView" : 3,
            "componentType" : 5123,
            "count" : 65568,
            "type" : "SCALAR"
        }
    ],
    "bufferViews" : [
        {
            "buffer" : 0,
            "byteLength" : 150576,
            "byteOffset" : 0
        },
        {
            "buffer" : 0,
            "byteLength" : 150576,
            "byteOffset" : 150576
        },
        {
            "buffer" : 0,
            "byteLength" : 100384,
            "byteOffset" : 301152
        },
        {
            "buffer" : 0,
            "byteLength" : 131136,
            "byteOffset" : 401536
        }
    ],
    "buffers" : [
        {
            "byteLength" : 532672,
            "uri" : "data:application/octet-stream;base64,"
        }
    ]
}
