{
    "asset" : {
        "generator" : "Khronos glTF Blender I/O v1.2.75",
        "version" : "2.0"
    },
    "scene" : 0,
    "scenes" : [
        {
            "name" : "Scene",
            "nodes" : [
                0,
                1,
                2
            ]
        }
    ],
    "nodes" : [
        {
            "mesh" : 0,
            "name" : "Pyramid"
        },
        {
            "mesh" : 1,
            "name" : "Fasad"
        },
        {
            "name" : "Camera",
            "rotation" : [
                0.4821525514125824,
                0.07951375097036362,
                -0.04399748519062996,
                0.8713614344596863
            ],
            "translation" : [
                30.28853988647461,
                0.002169214189052582,
                38.44252014160156
            ]
        }
    ],
    "meshes" : [
        {
            "name" : "Cube.010",
            "primitives" : [
                {
                    "attributes" : {
                        "POSITION" : 0,
                        "NORMAL" : 1,
                        "TEXCOORD_0" : 2
                    },
                    "indices" : 3
                }
            ]
        },
        {
            "name" : "Cube.014",
            "primitives" : [
                {
                    "attributes" : {
                        "POSITION" : 4,
                        "NORMAL" : 5,
                        "TEXCOORD_0" : 6
                    },
                    "indices" : 7
                }
            ]
        }
    ],
    "accessors" : [
        {
            "bufferView" : 0,
            "componentType" : 5126,
            "count" : 1097,
            "max" : [
                5.335176467895508,
                7.240893840789795,
                5.331153392791748
            ],
            "min" : [
                -5.335176467895508,
                -0.12379646301269531,
                -5.339199542999268
            ],
            "type" : "VEC3"
        },
        {
            "bufferView" : 1,
            "componentType" : 5126,
            "count" : 1097,
            "type" : "VEC3"
        },
        {
            "bufferView" : 2,
            "componentType" : 5126,
            "count" : 1097,
            "type" : "VEC2"
        },
        {
            "bufferView" : 3,
            "componentType" : 5123,
            "count" : 1458,
            "type" : "SCALAR"
        },
        {
            "bufferView" : 4,
            "componentType" : 5126,
            "count" : 25127,
            "max" : [
                26.026992797851562,
                12.983291625976562,
                26.8258113861084
            ],
            "min" : [
                -26.026992797851562,
                -0.0036144256591796875,
                -43.8043327331543
            ],
            "type" : "VEC3"
        },
        {
            "bufferView" : 5,
            "componentType" : 5126,
            "count" : 25127,
            "type" : "VEC3"
        },
        {
            "bufferView" : 6,
            "componentType" : 5126,
            "count" : 25127,
            "type" : "VEC2"
        },
        {
            "bufferView" : 7,
            "componentType" : 5123,
            "count" : 54138,
            "type" : "SCALAR"
        }
    ],
    "bufferViews" : [
        {
            "buffer" : 0,
            "byteLength" : 13164,
            "byteOffset" : 0
        },
        {
            "buffer" : 0,
            "byteLength" : 13164,
            "byteOffset" : 13164
        },
        {
            "buffer" : 0,
            "byteLength" : 8776,
            "byteOffset" : 26328
        },
        {
            "buffer" : 0,
            "byteLength" : 2916,
            "byteOffset" : 35104
        },
        {
            "buffer" : 0,
            "byteLength" : 301524,
            "byteOffset" : 38020
        },
        {
            "buffer" : 0,
            "byteLength" : 301524,
            "byteOffset" : 339544
        },
        {
            "buffer" : 0,
            "byteLength" : 201016,
            "byteOffset" : 641068
        },
        {
            "buffer" : 0,
            "byteLength" : 108276,
            "byteOffset" : 842084
        }
    ],
    "buffers" : [
        {
            "byteLength" : 950360,
            "uri" : "data:application/octet-stream;base64,"
        }
    ]
}
