# Blender v2.75 (sub 0) OBJ File: 'oldWall.blend'
# www.blender.org
mtllib oldWall.mtl
o baseTwo_Cube.002
v -4.539207 0.177720 0.778252
v -4.539207 0.177720 -0.381311
v -3.379644 0.177720 -0.381311
v -3.379644 0.177720 0.778252
v -4.539207 2.990562 0.778252
v -4.539207 2.990562 -0.381311
v -3.379644 2.990562 -0.381311
v -3.379644 2.990562 0.778252
v -4.585904 0.132989 0.824949
v -4.585904 0.132989 -0.428008
v -3.332947 0.132989 -0.428008
v -3.332947 0.132989 0.824949
v -4.585904 -0.001206 0.824949
v -4.585904 -0.001206 -0.428008
v -3.332947 -0.001206 -0.428008
v -3.332947 -0.001206 0.824949
v -4.049870 3.860143 0.288916
v -4.049870 3.860143 0.108025
v -3.868980 3.860143 0.108025
v -3.868980 3.860143 0.288916
vt 0.139063 0.558805
vt 0.036272 0.726177
vt 0.019698 0.727203
vt 0.131687 0.549235
vt 0.211032 0.999843
vt 0.038819 0.915388
vt 0.184167 0.802838
vt 0.211032 0.816013
vt 0.191964 0.000157
vt 0.191964 0.465439
vt 0.000157 0.465439
vt 0.000157 0.000157
vt 0.767386 0.000157
vt 0.767386 0.465439
vt 0.575579 0.465439
vt 0.575579 0.000157
vt 0.383772 0.465439
vt 0.383772 0.000157
vt 0.302940 0.489488
vt 0.117095 0.532228
vt 0.301355 0.465753
vt 0.463939 0.558206
vt 0.302528 0.500789
vt 0.470858 0.550128
vt 0.563460 0.725996
vt 0.576825 0.727203
vt 0.808286 0.673009
vt 0.601030 0.673009
vt 0.601030 0.465753
vt 0.808286 0.465753
vt 0.485781 0.530207
vt 0.600716 0.712751
vt 0.000157 0.714679
vt 0.630952 0.703244
vt 0.601030 0.703244
vt 0.601030 0.673323
vt 0.630952 0.673323
vt 0.383245 0.915388
vt 0.237897 0.802838
vt 0.000157 0.727517
vt 0.178135 0.773530
vt 0.421907 0.727517
vt 0.243928 0.773530
vn -0.691700 0.722100 0.000000
vn 0.871500 0.490400 0.000000
vn -1.000000 -0.000000 -0.000000
vn 0.000000 -0.000000 -1.000000
vn 1.000000 0.000000 0.000000
vn -0.000000 0.000000 1.000000
vn 0.691700 0.722100 0.000000
vn 0.000000 0.722100 -0.691700
vn -0.000000 0.722100 0.691700
vn 0.000000 -1.000000 0.000000
vn 0.000000 1.000000 0.000000
vn -0.000000 0.490400 0.871500
vn 0.000000 0.490400 -0.871500
vn -0.871500 0.490400 -0.000000
usemtl Material
s off
f 1/1/1 2/2/1 10/3/1 9/4/1
f 8/5/2 7/6/2 19/7/2 20/8/2
f 1/9/3 5/10/3 6/11/3 2/12/3
f 2/13/4 6/14/4 7/15/4 3/16/4
f 3/16/5 7/15/5 8/17/5 4/18/5
f 5/10/6 1/9/6 4/18/6 8/17/6
f 12/19/6 9/4/6 13/20/6 16/21/6
f 3/22/7 4/23/7 12/19/7 11/24/7
f 2/25/8 3/22/8 11/24/8 10/26/8
f 4/23/9 1/1/9 9/4/9 12/19/9
f 13/27/10 14/28/10 15/29/10 16/30/10
f 10/26/4 11/24/4 15/31/4 14/32/4
f 9/4/3 10/3/3 14/33/3 13/20/3
f 11/24/5 12/19/5 16/21/5 15/31/5
f 17/34/11 20/35/11 19/36/11 18/37/11
f 5/38/12 8/5/12 20/8/12 17/39/12
f 7/6/13 6/40/13 18/41/13 19/7/13
f 6/42/14 5/38/14 17/39/14 18/43/14
o Wall_Cube.001
v 3.682402 0.221735 0.092706
v 3.682402 2.221735 0.092706
v 3.682402 0.221735 0.393731
v 3.682402 2.221735 0.393731
v -3.622981 0.221735 0.092706
v -3.622981 2.221735 0.092706
v -3.622981 0.221735 0.393731
v -3.622981 2.221735 0.393731
vt 0.032466 0.710430
vt 0.000124 0.710430
vt 0.000124 0.495554
vt 0.032466 0.495554
vt -0.440907 0.025827
vt 1.331858 0.025827
vt 1.331858 0.511158
vt -0.440907 0.511158
vt 0.999876 0.430373
vt 0.999876 0.462715
vt 0.785001 0.462715
vt 0.785001 0.430374
vt 1.331858 0.997052
vt -0.440907 0.997052
vt -0.440907 0.511720
vt 1.331858 0.511721
vt 0.000124 0.462715
vt 0.000124 0.430374
vt 0.785000 0.462964
vt 0.785000 0.495306
vt 0.000124 0.495305
vt 0.000124 0.462964
vn 1.000000 0.000000 0.000000
vn 0.000000 0.000000 1.000000
vn -1.000000 0.000000 0.000000
vn 0.000000 0.000000 -1.000000
vn 0.000000 -1.000000 0.000000
vn 0.000000 1.000000 0.000000
usemtl None
s off
f 22/44/15 24/45/15 23/46/15 21/47/15
f 24/48/16 28/49/16 27/50/16 23/51/16
f 28/52/17 26/53/17 25/54/17 27/55/17
f 26/56/18 22/57/18 21/58/18 25/59/18
f 21/60/19 23/61/19 27/55/19 25/54/19
f 26/62/20 28/63/20 24/64/20 22/65/20
o Cube
v 3.574711 0.177720 0.778252
v 3.574711 0.177720 -0.381311
v 4.734274 0.177720 -0.381311
v 4.734274 0.177720 0.778252
v 3.574711 2.990562 0.778252
v 3.574712 2.990562 -0.381311
v 4.734274 2.990562 -0.381311
v 4.734274 2.990562 0.778252
v 3.528014 0.132989 0.824949
v 3.528014 0.132989 -0.428008
v 4.780972 0.132989 -0.428008
v 4.780971 0.132989 0.824949
v 3.528014 -0.001206 0.824949
v 3.528014 -0.001206 -0.428008
v 4.780972 -0.001206 -0.428008
v 4.780971 -0.001206 0.824949
v 4.064048 3.860143 0.288916
v 4.064048 3.860143 0.108025
v 4.244938 3.860143 0.108025
v 4.244938 3.860143 0.288916
vt 0.139063 0.558805
vt 0.036272 0.726177
vt 0.019698 0.727203
vt 0.131687 0.549235
vt 0.211032 0.999843
vt 0.038819 0.915388
vt 0.184167 0.802838
vt 0.211032 0.816013
vt 0.191964 0.000157
vt 0.191964 0.465439
vt 0.000157 0.465439
vt 0.000157 0.000157
vt 0.767386 0.000157
vt 0.767386 0.465439
vt 0.575579 0.465439
vt 0.575579 0.000157
vt 0.383772 0.465439
vt 0.383772 0.000157
vt 0.302940 0.489488
vt 0.117095 0.532228
vt 0.301355 0.465753
vt 0.463939 0.558206
vt 0.302528 0.500789
vt 0.470858 0.550128
vt 0.563460 0.725996
vt 0.576825 0.727203
vt 0.808286 0.673009
vt 0.601030 0.673009
vt 0.601030 0.465753
vt 0.808286 0.465753
vt 0.485781 0.530207
vt 0.600716 0.712751
vt 0.000157 0.714679
vt 0.630952 0.703244
vt 0.601030 0.703244
vt 0.601030 0.673323
vt 0.630952 0.673323
vt 0.383245 0.915388
vt 0.237897 0.802838
vt 0.000157 0.727517
vt 0.178135 0.773530
vt 0.421907 0.727517
vt 0.243928 0.773530
vn -0.691700 0.722100 0.000000
vn 0.871500 0.490400 0.000000
vn -1.000000 0.000000 -0.000000
vn 0.000000 -0.000000 -1.000000
vn 1.000000 -0.000000 0.000000
vn -0.000000 0.000000 1.000000
vn 0.691700 0.722100 0.000000
vn 0.000000 0.722100 -0.691700
vn -0.000000 0.722100 0.691700
vn 0.000000 -1.000000 0.000000
vn 0.000000 1.000000 0.000000
vn -0.000000 0.490400 0.871500
vn 0.000000 0.490400 -0.871500
vn -0.871500 0.490400 -0.000000
usemtl Material
s off
f 29/66/21 30/67/21 38/68/21 37/69/21
f 36/70/22 35/71/22 47/72/22 48/73/22
f 29/74/23 33/75/23 34/76/23 30/77/23
f 30/78/24 34/79/24 35/80/24 31/81/24
f 31/81/25 35/80/25 36/82/25 32/83/25
f 33/75/26 29/74/26 32/83/26 36/82/26
f 40/84/26 37/69/26 41/85/26 44/86/26
f 31/87/27 32/88/27 40/84/27 39/89/27
f 30/90/28 31/87/28 39/89/28 38/91/28
f 32/88/29 29/66/29 37/69/29 40/84/29
f 41/92/30 42/93/30 43/94/30 44/95/30
f 38/91/24 39/89/24 43/96/24 42/97/24
f 37/69/23 38/68/23 42/98/23 41/85/23
f 39/89/25 40/84/25 44/86/25 43/96/25
f 45/99/31 48/100/31 47/101/31 46/102/31
f 33/103/32 36/70/32 48/73/32 45/104/32
f 35/71/33 34/105/33 46/106/33 47/72/33
f 34/107/34 33/103/34 45/104/34 46/108/34
